{"title":"Kara Sevda S01E41.DVB-T.X264.ARI Greek Subs","uid":15484168,"size":429662978,"categoryP":"video","categoryS":"tv_shows","magnet":"?xt=urn:btih:f4859c0eae80455075eaa4eb55d123c36c02eea5&amp;dn=Kara+Sevda+S01E41.DVB-T.X264.ARI+Greek+Subs&amp;tr=udp%3A%2F%2Ftracker.leechers-paradise.org%3A6969&amp;tr=udp%3A%2F%2Fzer0day.ch%3A1337&amp;tr=udp%3A%2F%2Fopen.demonii.com%3A1337&amp;tr=udp%3A%2F%2Ftracker.coppersurfer.tk%3A6969&amp;tr=udp%3A%2F%2Fexodus.desync.com%3A6969","seeders":10,"leechers":1,"uploader":"Aris2015","files":1,"time":1470298140,"description":"General\r\nComplete name               : Kara Sevda S01E41.DVB-T.X264.ARI.mp4\r\nFormat                      : MPEG-4\r\nFormat profile              : Base Media\r\nCodec ID                    : isom (isom/iso2/avc1/mp41)\r\nFile size                   : 410 MiB\r\nDuration                    : 50mn 24s\r\nOverall bit rate mode       : Variable\r\nOverall bit rate            : 1 136 Kbps\r\nPerformer                   : ARI\r\nWriting application         : Lavf57.41.100\r\n\r\nVideo\r\nID                          : 1\r\nFormat                      : AVC\r\nFormat/Info                 : Advanced Video Codec\r\nFormat profile              :   \r\nFormat settings, CABAC      : Yes\r\nFormat settings, ReFrames   : 5 frames\r\nCodec ID                    : avc1\r\nCodec ID/Info               : Advanced Video Coding\r\nDuration                    : 50mn 24s\r\nBit rate mode               : Variable\r\nBit rate                    : 1 000 Kbps\r\nMaximum bit rate            : 17.5 Mbps\r\nWidth                       : 720 pixels\r\nHeight                      : 576 pixels\r\nDisplay aspect ratio        : 16:9\r\nFrame rate mode             : Constant\r\nFrame rate                  : 25.000 fps\r\nStandard                    : PAL\r\nColor space                 : YUV\r\nChroma subsampling          : 4:2:0\r\nBit depth                   : 8 bits\r\nScan type                   : Progressive\r\nBits/(Pixel*Frame)          : 0.096\r\nStream size                 : 362 MiB (88%)\r\nWriting library             : x264 core 148 r2643\r\n\r\n\r\nAudio\r\nID                          : 2\r\nFormat                      : AAC\r\nFormat/Info                 : Advanced Audio Codec\r\nFormat profile              : LC\r\nCodec ID                    : 40\r\nDuration                    : 50mn 24s\r\nBit rate mode               : Constant\r\nBit rate                    : 128 Kbps\r\nChannel(s)                  : 2 channels\r\nChannel positions           : Front: L R\r\nSampling rate               : 48.0 KHz\r\nFrame rate                  : 46.875 fps (1024 spf)\r\nCompression mode            : Lossy\r\nStream size                 : 46.1 MiB (11%)\r\nLanguage                    : Turkish\r\nDefault                     : Yes","torrent":{"xt":"urn:btih:f4859c0eae80455075eaa4eb55d123c36c02eea5","amp;dn":"Kara+Sevda+S01E41.DVB-T.X264.ARI+Greek+Subs","amp;tr":["udp%3A%2F%2Ftracker.leechers-paradise.org%3A6969","udp%3A%2F%2Fzer0day.ch%3A1337","udp%3A%2F%2Fopen.demonii.com%3A1337","udp%3A%2F%2Ftracker.coppersurfer.tk%3A6969","udp%3A%2F%2Fexodus.desync.com%3A6969"],"infoHash":"f4859c0eae80455075eaa4eb55d123c36c02eea5","infoHashBuffer":{"type":"Buffer","data":[244,133,156,14,174,128,69,80,117,234,164,235,85,209,35,195,108,2,238,165]},"announce":[],"urlList":[]}}